# xmcd
#
# Track frame offsets:
#	150
#	11218
#	22835
#	35470
#	47958
#	59402
#	71780
#	83557
#	97161
#	110334
#	118855
#	129591
#	141379
#	154302
#	166824
#	180277
#	188138
#	200731
#	213127
#	227462
#	238257
#	250465
#	264151
#	270492
#	282413
#
# Disc length: 3914 seconds
#
# Revision: 2
# Processed by: cddbd v1.5.2PL0 Copyright (c) Steve Scherf et al.
# Submitted via: audiograbber 1.83.01
#
DISCID=6b0f4819
DTITLE=Varius - The Best Of Country Fiddle
DYEAR=2006
DGENRE=Country
TTITLE0=Bill Monroe and His Bluegrass Boys - Orange Blossom Special
TTITLE1=Bob Wills and His Texas Playboys - Take Me Back To Tulsa
TTITLE2=The Skillet Lickers with Gid Tanner - Cumberland Gap On A Buckin´ Mule
TTITLE3=The Red-Headed Fiddlers - Texas Quick Step
TTITLE4=Doc Roberts - Way Down South In Dixie
TTITLE5=Ted Gossett - Fire On The Mountain
TTITLE6=Bob Wills and His Texas Playboys - Cotton-Eyed Joe
TTITLE7=Grayson and Whitter - Tom Dooley
TTITLE8=Clark Kessinger - West Virginia Special
TTITLE9=W. M. Stepp - Callahan
TTITLE10=The Skillet Lickers With Gid Tanner - Nancy Rollin´
TTITLE11=The Lewis Brothers - Sally Johnson
TTITLE12=The Leake Caunty Revelers - Johnson Gal
TTITLE13=Doc Roberts - Brick Yard Joe
TTITLE14=Bob Wills and His Texas Playboys - Osage Stomp
TTITLE15=W. M. Stepp - Mud Fence
TTITLE16=Grayson and Whitter - Train ´45
TTITLE17=Clark Kessinger - Shoo Fly
TTITLE18=The Skillet Lickers With Gid Tanner - Paddy Won´t You Drink Some Good 
TTITLE18=Old Cider
TTITLE19=Ted Gossett - The Bow-Legged Irishman
TTITLE20=The Nations Brothers - Bankhead Blues
TTITLE21=Doc Roberts - New Money
TTITLE22=W. M. Stepp - The Old Hen
TTITLE23=Fiddlin´ Jim Pate - Texas Farwell
TTITLE24=Bob Wills and His Texas Plyboys - Home In San Antone
EXTD=
EXTT0=
EXTT1=
EXTT2=
EXTT3=
EXTT4=
EXTT5=
EXTT6=
EXTT7=
EXTT8=
EXTT9=
EXTT10=
EXTT11=
EXTT12=
EXTT13=
EXTT14=
EXTT15=
EXTT16=
EXTT17=
EXTT18=
EXTT19=
EXTT20=
EXTT21=
EXTT22=
EXTT23=
EXTT24=
PLAYORDER=
